<?xml version="1.0" encoding="utf-8"?>
<!-- Generator: Adobe Illustrator 18.0.0, SVG Export Plug-In . SVG Version: 6.00 Build 0)  -->
<!DOCTYPE svg PUBLIC "-//W3C//DTD SVG 1.0//EN" "http://www.w3.org/TR/2001/REC-SVG-20010904/DTD/svg10.dtd">
<svg version="1.0" id="Layer_1" xmlns="http://www.w3.org/2000/svg" xmlns:xlink="http://www.w3.org/1999/xlink" x="0px" y="0px"
	 width="35px" height="35px" viewBox="0 0 35 35" enable-background="new 0 0 35 35" xml:space="preserve">
<g>
	<g>
		<path fill="#69BE5E" d="M18,17.5c0.8,0,1.5-0.7,1.5-1.5c0-0.8-0.7-1.5-1.5-1.5c-0.8,0-1.5,0.7-1.5,1.5
			C16.5,16.8,17.2,17.5,18,17.5z M13,17.5c0.8,0,1.5-0.7,1.5-1.5c0-0.8-0.7-1.5-1.5-1.5c-0.8,0-1.5,0.7-1.5,1.5
			C11.5,16.8,12.2,17.5,13,17.5z M23,17.5c0.8,0,1.5-0.7,1.5-1.5c0-0.8-0.7-1.5-1.5-1.5c-0.8,0-1.5,0.7-1.5,1.5
			C21.5,16.8,22.2,17.5,23,17.5z M27.8,8.5H8.3c-0.4,0-0.8,0.3-0.8,0.7v13.2c0,0.4,0.6,1.1,1,1.1h3l0,3.3c0,0.3,0.2,0.5,0.4,0.7
			c0.1,0,0.2,0.1,0.3,0.1c0.2,0,0.3-0.1,0.5-0.2l5.8-3.8h9c0.4,0,1-0.6,1-1l0-13.3C28.5,8.8,28.2,8.5,27.8,8.5z M26.5,21.5h-9
			c-0.2,0-0.3,0.3-0.5,0.4l-4,3.3l0.5-2.7c0-0.4-0.6-1-1-1h-3v-11h17V21.5z"/>
	</g>
</g>
</svg>
