<?xml version="1.0" encoding="utf-8"?>
<!-- Generator: Adobe Illustrator 18.0.0, SVG Export Plug-In . SVG Version: 6.00 Build 0)  -->
<!DOCTYPE svg PUBLIC "-//W3C//DTD SVG 1.0//EN" "http://www.w3.org/TR/2001/REC-SVG-20010904/DTD/svg10.dtd">
<svg version="1.0" id="Layer_1" xmlns="http://www.w3.org/2000/svg" xmlns:xlink="http://www.w3.org/1999/xlink" x="0px" y="0px"
	 width="35px" height="35px" viewBox="0 0 35 35" enable-background="new 0 0 35 35" xml:space="preserve">
<g>
	<g>
		<path fill-rule="evenodd" clip-rule="evenodd" fill="#69BE5E" d="M28.5,27.5h-21c-0.2,0-1,0.8-1,1c0,0.2,0.8,1,1,1h21
			c0.2,0,1-0.8,1-1C29.5,28.3,28.7,27.5,28.5,27.5z M10.5,25.5h16c0.2,0,1-0.8,1-1v-13c0-0.2-0.8-1-1-1h-5v-4c0-0.2-0.8-1-1-1h-5
			c-0.2,0-1,0.8-1,1v10h-4c-0.2,0-1,0.8-1,1v7C9.5,24.7,10.3,25.5,10.5,25.5z M21.5,12.5h4v11h-4V12.5z M16.5,7.5h3v16h-3V7.5z
			 M11.5,18.5h3v5h-3V18.5z"/>
	</g>
</g>
</svg>
