<?xml version="1.0" encoding="utf-8"?>
<!-- Generator: Adobe Illustrator 18.0.0, SVG Export Plug-In . SVG Version: 6.00 Build 0)  -->
<!DOCTYPE svg PUBLIC "-//W3C//DTD SVG 1.0//EN" "http://www.w3.org/TR/2001/REC-SVG-20010904/DTD/svg10.dtd">
<svg version="1.0" id="Layer_1" xmlns="http://www.w3.org/2000/svg" xmlns:xlink="http://www.w3.org/1999/xlink" x="0px" y="0px"
	 width="35px" height="35px" viewBox="0 0 35 35" enable-background="new 0 0 35 35" xml:space="preserve">
<path fill-rule="evenodd" clip-rule="evenodd" fill="#69BE5E" d="M6.5,23.5L6.5,23.5c0,0-0.1-1.7,0-2h-1c0,0,0,1.5,0,1v-3
	c0-0.3-0.5,0.2,0,0c0.1,0-0.1,0,0,0c0.5-0.3,2.5-1.6,3-2c0.3-0.2,1.7-1.3,2-2c0.1-0.3,0.5-2.1,1-3c0.6-1,0.4-1.9,1-2
	c1-0.2,0.5,0,1,0l0,0h5l3,11h-7c0,1.4,0,1.7,0,2h9c0.1,0-0.1,0.1,0,0c0.1-0.1,0.1-0.9,0-1l-4-14c-0.1-0.2-0.2,0.9,0,0h-6l0,0
	c-0.7,0-1.6,0.1-2.2,1.3c-0.3,0.5-0.8,1.6-1.4,2.5c-0.6,1.1-1.1,2-1.3,2.3c-0.2,0.5-1,1.4-1.2,1.5c-0.5,0.4-2.1,1.6-2.6,1.9
	c-0.1,0-0.2,0.1-0.2,0.1c-0.5,0.2-1.2,0.6-1.2,1.5v2.1C3.5,23,5.5,23.5,6.5,23.5z M32.5,12.5v-2h-11l1,2H32.5z M31.5,13.5h-8l1,2h7
	V13.5z M30.5,16.5h-5l1,2h4V16.5z M16.5,19.5c0,0.5,0.5,1,1,1c0.6,0,1-0.4,1-1c0-0.5-0.5-1-1-1C16.9,18.5,16.5,19,16.5,19.5z
	 M15.5,11.5h-1l-2,5h5c0.1,0-0.1,0.1,0,0c0.1-0.1,0,0.1,0,0L15.5,11.5z M10.5,20.5c-1.7,0-3,1.3-3,3c0,1.7,1.3,3,3,3s3-1.3,3-3
	C13.5,21.9,12.1,20.5,10.5,20.5z"/>
</svg>
